<svg width="36" height="40" viewBox="0 0 36 40" fill="none" xmlns="http://www.w3.org/2000/svg">
<g clip-path="url(#clip0_22_2595)">
<path d="M6.41839 15.6206C9.66645 13.1724 13.937 9.14461 17.0245 4.19885C17.2091 3.90318 17.6446 3.95968 17.6978 4.30415C18.3435 8.48445 14.4148 13.2271 11.837 15.6792H13.8605H16.9246C17.3309 15.6792 17.587 16.1138 17.378 16.4622C15.1256 20.2187 12.1256 22.8756 10.1091 24.577H16.0333C16.5564 24.577 16.8761 25.1462 16.5848 25.5807C12.8875 31.0948 7.23443 34.5124 2.15332 36.4404C2.00433 36.497 1.8406 36.4107 1.8005 36.2565L1.06689 33.4349C1.02997 33.2929 1.11274 33.1481 1.25308 33.1053C5.30361 31.8713 9.98647 28.1417 10.0872 27.8619H5.24423C5.13218 27.8619 5.03184 27.7925 4.99231 27.6877L3.93466 24.8828C3.88673 24.7557 3.94074 24.6132 4.05998 24.5481C6.58438 23.1711 9.7214 20.6144 11.0966 18.9773H7.79735C7.68923 18.9773 7.59161 18.9126 7.54944 18.813L6.33287 15.9411C6.28448 15.8268 6.31931 15.6953 6.41839 15.6206Z" fill="#80B224"/>
<path d="M29.5826 15.6468C26.3345 13.1987 22.064 9.17086 18.9765 4.2251C18.7919 3.92943 18.3564 3.98592 18.3032 4.33039C17.6575 8.5107 21.5862 13.2533 24.164 15.7054H19.083C18.6737 15.7054 18.4158 16.1432 18.6263 16.4941C20.8784 20.2476 23.8764 22.9027 25.8919 24.6033H19.9677C19.4446 24.6033 19.1249 25.1725 19.4162 25.6069C23.1135 31.121 28.7665 34.5386 33.8477 36.4667C33.9966 36.5232 34.1604 36.437 34.2005 36.2828L34.9341 33.4612C34.971 33.3192 34.8882 33.1743 34.7479 33.1316C30.6974 31.8976 26.0145 28.168 25.9138 27.8882H30.7567C30.8688 27.8882 30.9691 27.8188 31.0087 27.7139L32.0663 24.909C32.1142 24.7819 32.0602 24.6394 31.941 24.5744C29.4166 23.1974 26.2796 20.6406 24.9044 19.0035H28.2036C28.3117 19.0035 28.4094 18.9388 28.4515 18.8393L29.6681 15.9673C29.7165 15.8531 29.6817 15.7215 29.5826 15.6468Z" fill="#80B224"/>
<path d="M14.7889 31.3935C15.8811 30.9906 17.1389 30.8748 18.2756 30.9143C19.3406 30.9514 20.3264 31.1256 21.0029 31.3475L21.134 31.3926L21.1591 31.4015L21.1823 31.4144C21.8961 31.807 22.8782 32.1909 23.8145 32.4548C24.2814 32.5864 24.7309 32.6863 25.1242 32.7428C25.523 32.8002 25.842 32.8096 26.058 32.7744C26.2414 32.7445 26.4144 32.8689 26.4443 33.0523C26.4742 33.2357 26.3497 33.4087 26.1663 33.4386C25.8504 33.4901 25.4523 33.47 25.0284 33.4091C24.5988 33.3473 24.1197 33.2401 23.632 33.1026C22.67 32.8315 21.6507 32.436 20.885 32.0186C20.2874 31.8078 19.3238 31.6243 18.2522 31.587C17.1772 31.5497 16.0239 31.6605 15.0459 32.0162C12.5321 33.4385 10.7959 33.4567 9.80822 33.4567C9.62236 33.4567 9.47169 33.306 9.47168 33.1201C9.47168 32.9343 9.62235 32.7836 9.80822 32.7836C10.7348 32.7836 12.3501 32.7745 14.7391 31.4166L14.763 31.403L14.7889 31.3935Z" fill="#80B224"/>
<path d="M14.74 32.8013C15.8425 32.3987 17.1124 32.283 18.2602 32.3225C19.3356 32.3595 20.3309 32.5337 21.0137 32.7554L21.146 32.8003L21.171 32.8091L21.1942 32.8218C21.9157 33.2146 22.9084 33.5987 23.8546 33.8627C24.3266 33.9943 24.781 34.0944 25.1787 34.151C25.5819 34.2083 25.905 34.2178 26.1242 34.1824C26.3076 34.1528 26.4804 34.2775 26.51 34.4609C26.5396 34.6444 26.4149 34.8173 26.2314 34.8469C25.9133 34.8983 25.5118 34.8783 25.0838 34.8173C24.6501 34.7556 24.1663 34.6484 23.6737 34.511C22.7021 34.24 21.6727 33.8445 20.8995 33.4273C20.2951 33.2161 19.3206 33.0324 18.237 32.9952C17.1502 32.9578 15.984 33.0687 14.9948 33.4249C12.4572 34.8463 10.7904 34.854 9.79211 34.854C9.60624 34.854 9.45557 34.7033 9.45557 34.5175C9.45558 34.3316 9.60625 34.1809 9.79211 34.1809C10.7279 34.1809 12.2752 34.1828 14.6905 32.824L14.7143 32.8106L14.74 32.8013Z" fill="#80B224"/>
<path d="M14.7466 34.2176C16.9328 33.4278 19.5579 33.6494 21.0402 34.1449L21.18 34.1938L21.2113 34.2051L21.2408 34.2209C22.1418 34.7021 23.0952 35.0682 23.9485 35.2944C24.8143 35.5239 25.5312 35.5969 25.9753 35.5326C26.2328 35.4954 26.4718 35.674 26.5091 35.9315C26.5463 36.1889 26.3678 36.4279 26.1104 36.4652C25.4799 36.5565 24.6179 36.4467 23.707 36.2053C22.7942 35.9634 21.786 35.5765 20.8305 35.0697C19.5511 34.613 17.0922 34.3815 15.0917 35.095C13.8561 35.7175 13.0364 36.0555 12.2854 36.2395C11.5267 36.4253 10.8595 36.448 9.96144 36.4761C9.70136 36.4842 9.48396 36.28 9.47582 36.0199C9.46769 35.7599 9.67191 35.5424 9.93199 35.5343C10.8416 35.5059 11.4127 35.4831 12.0611 35.3242C12.7118 35.1649 13.4616 34.8625 14.6944 34.2402L14.7198 34.2273L14.7466 34.2176Z" fill="#80B224"/>
<path d="M10.1089 24.5771H13.3931C12.6899 25.5564 10.8424 27.345 10.0866 27.8628C10.0867 27.8625 10.087 27.8623 10.0871 27.862H5.24414C5.23395 27.862 5.22383 27.8611 5.21387 27.86C6.7751 27.086 9.82771 24.7886 10.102 24.5821L10.1095 24.5765L10.1089 24.5771Z" fill="url(#paint0_linear_22_2595)"/>
<path d="M11.8367 15.6791H13.9035C13.2509 16.595 11.9036 18.3089 11.0894 18.9772H7.8208C9.12679 17.9712 11.6143 15.9474 11.8382 15.6759L11.8401 15.6757C11.8389 15.6768 11.8378 15.678 11.8367 15.6791Z" fill="url(#paint1_linear_22_2595)"/>
<path d="M24.1523 15.7054C24.5031 16.0729 26.9202 18.0369 28.1773 19.0035H24.907C24.1042 18.3611 22.7473 16.6399 22.0791 15.7054H24.1523Z" fill="url(#paint2_linear_22_2595)"/>
<path d="M25.89 24.6033C26.3031 24.9139 29.2816 27.1452 30.789 27.8794L30.1319 27.8882H25.9151C25.1915 27.4106 23.3191 25.605 22.5898 24.6033H25.89Z" fill="url(#paint3_linear_22_2595)"/>
</g>
<defs>
<linearGradient id="paint0_linear_22_2595" x1="9.30347" y1="24.5765" x2="9.30347" y2="27.8628" gradientUnits="userSpaceOnUse">
<stop stop-color="#1B9135"/>
<stop offset="1" stop-color="#1A552C"/>
</linearGradient>
<linearGradient id="paint1_linear_22_2595" x1="10.8621" y1="15.6757" x2="10.8621" y2="18.9772" gradientUnits="userSpaceOnUse">
<stop stop-color="#1B9135"/>
<stop offset="1" stop-color="#1A552C"/>
</linearGradient>
<linearGradient id="paint2_linear_22_2595" x1="25.1282" y1="15.7054" x2="25.1282" y2="19.0035" gradientUnits="userSpaceOnUse">
<stop stop-color="#1B9135"/>
<stop offset="1" stop-color="#1A552C"/>
</linearGradient>
<linearGradient id="paint3_linear_22_2595" x1="26.6894" y1="24.6033" x2="26.6894" y2="27.8882" gradientUnits="userSpaceOnUse">
<stop stop-color="#1B9135"/>
<stop offset="1" stop-color="#1A552C"/>
</linearGradient>
<clipPath id="clip0_22_2595">
<rect width="36" height="40" fill="white"/>
</clipPath>
</defs>
</svg>
